# xmcd CD database file
#
# Track frame offsets:
#	150
#	15543
#	28880
#	42728
#	55374
#	67715
#	80818
#	94295
#	106631
#	120207
#	133302
#	148231
#	161394
#	174786
#	188928
#	203118
#	217587
#	232317
#	247737
#	260118
#
# Disc length: 3665 seconds
#
# Revision: 4
# Processed by: cddbd v1.5.2PL0 Copyright (c) Steve Scherf et al.
# Submitted via: CDex 1.51
#
DISCID=190e4f14
DTITLE=Ella Fitzgerald - Everyone's Wrong But Me  [CD 08-10]
DYEAR=1900
DGENRE=Jazz
TTITLE0=You Don't Know What Love Is
TTITLE1=Who Are You ¿
TTITLE2=I'm Thrilled
TTITLE3=Make Love To Me
TTITLE4=I'm Gettin' Mighty Lonesome For You
TTITLE5=When I Come Back Crying  (Will You Be Laughing At Me ¿)
TTITLE6=All I Need Is You
TTITLE7=Mama Come Home
TTITLE8=My Heart And I Decided
TTITLE9=(I Put)  A Four Leaf Clover In Your Pocket
TTITLE10=He's My Guy
TTITLE11=Cow Cow Boogie  (Cuma-Ti-Yi-Ti-Ay)
TTITLE12=Once Too Often
TTITLE13=Time Alone Will Tell
TTITLE14=Ella Fitzgerald and The Ink Spots - Into Each Life Some Rain Must Fall
TTITLE15=Ella Fitzgerald and The Ink Spots - I'm Making Believe
TTITLE16=And Her Tears Flowed Like Wine
TTITLE17=I'm Confessin'  (That I Love You)
TTITLE18=Ella Fitzgerald and The Ink Spots - I'm Beginning To See The Light
TTITLE19=That's The Way It Is
EXTD=
EXTT0=
EXTT1=
EXTT2=
EXTT3=
EXTT4=
EXTT5=
EXTT6=
EXTT7=
EXTT8=
EXTT9=
EXTT10=
EXTT11=
EXTT12=
EXTT13=
EXTT14=
EXTT15=
EXTT16=
EXTT17=
EXTT18=
EXTT19=
PLAYORDER=
